<svg width="140" height="52" viewBox="0 0 140 52" fill="none" xmlns="http://www.w3.org/2000/svg">
<path d="M19.0099 51.0276C29.5082 51.0276 38.0188 42.517 38.0188 32.0187C38.0188 21.5203 29.5082 13.0098 19.0099 13.0098C8.51156 13.0098 0.000976562 21.5203 0.000976562 32.0187C0.000976562 42.517 8.51156 51.0276 19.0099 51.0276Z" fill="#E4E4E4"/>
<path d="M6.29313 12.9437C9.76819 12.9437 12.5853 10.1266 12.5853 6.65153C12.5853 3.17647 9.76819 0.359375 6.29313 0.359375C2.81807 0.359375 0.000976562 3.17647 0.000976562 6.65153C0.000976562 10.1266 2.81807 12.9437 6.29313 12.9437Z" fill="#805CCD"/>
<path d="M80.4795 9.79811V4.66504H81.8704V9.49178C81.8704 9.91126 81.9725 10.2921 82.1767 10.6343C82.3809 10.9765 82.6541 11.2497 82.9964 11.4539C83.3441 11.6526 83.7249 11.752 84.1389 11.752C84.5584 11.752 84.9364 11.6526 85.2731 11.4539C85.6153 11.2497 85.8885 10.9765 86.0928 10.6343C86.297 10.2921 86.3991 9.91126 86.3991 9.49178V4.66504H87.79L87.7983 12.9442H86.4074L86.3991 11.8927C86.1066 12.2791 85.7368 12.5882 85.2897 12.82C84.8426 13.0463 84.3597 13.1594 83.8408 13.1594C83.2227 13.1594 82.6569 13.0104 82.1436 12.7124C81.6358 12.4088 81.2301 12.0031 80.9266 11.4953C80.6285 10.9875 80.4795 10.4218 80.4795 9.79811Z" fill="#E4E4E4"/>
<path d="M79.0738 12.9436H77.4759L75.2736 9.14349L73.7503 10.9649V12.9436H72.3594V0.524902H73.7503V8.80405L77.2192 4.66448H79.0324L76.2175 8.01753L79.0738 12.9436Z" fill="#E4E4E4"/>
<path d="M68.7208 4.66492H70.1117V12.9441H68.7208L68.6629 11.5449C68.4034 12.0251 68.0447 12.4142 67.5866 12.7123C67.134 13.0103 66.5931 13.1593 65.9639 13.1593C65.3567 13.1593 64.7882 13.0462 64.2583 12.8199C63.7285 12.5881 63.2593 12.2707 62.8509 11.8678C62.448 11.4593 62.1334 10.9902 61.9071 10.4603C61.6808 9.93046 61.5676 9.3592 61.5676 8.74654C61.5676 8.15596 61.678 7.5985 61.8988 7.07415C62.1196 6.54981 62.4259 6.09169 62.8178 5.69981C63.2152 5.30242 63.6733 4.99333 64.1921 4.77255C64.7109 4.54625 65.2684 4.43311 65.8645 4.43311C66.5158 4.43311 67.0871 4.58765 67.5783 4.89674C68.0695 5.20031 68.4669 5.59495 68.7705 6.08066L68.7208 4.66492ZM65.939 11.8098C66.4854 11.8098 66.9574 11.6774 67.3548 11.4124C67.7577 11.142 68.0668 10.7777 68.282 10.3196C68.5028 9.86147 68.6132 9.35644 68.6132 8.8045C68.6132 8.24151 68.5028 7.73373 68.282 7.28113C68.0612 6.82302 67.7494 6.4615 67.3465 6.19656C66.9491 5.92611 66.4799 5.79089 65.939 5.79089C65.3926 5.79089 64.8958 5.92611 64.4488 6.19656C64.0017 6.46702 63.6457 6.8313 63.3808 7.28941C63.1213 7.74201 62.9916 8.24703 62.9916 8.8045C62.9916 9.36196 63.1269 9.86975 63.3973 10.3279C63.6678 10.7805 64.0265 11.142 64.4736 11.4124C64.9207 11.6774 65.4092 11.8098 65.939 11.8098Z" fill="#E4E4E4"/>
<path d="M52.5598 12.9438V1.35303H56.5586C57.1327 1.35303 57.6542 1.47169 58.1234 1.70903C58.5981 1.94085 58.9734 2.28029 59.2494 2.72737C59.5253 3.17444 59.6633 3.70982 59.6633 4.33352C59.6633 4.67021 59.6054 4.99585 59.4895 5.31046C59.3791 5.61955 59.2245 5.88724 59.0258 6.11354C58.8326 6.33431 58.6119 6.48334 58.3635 6.56061C58.7112 6.64892 59.0065 6.80623 59.2494 7.03252C59.4922 7.2533 59.6882 7.51271 59.8372 7.81076C59.9917 8.10881 60.1021 8.42066 60.1684 8.74631C60.2346 9.07195 60.2677 9.38656 60.2677 9.69013C60.2677 10.3304 60.1214 10.8961 59.8289 11.3874C59.5419 11.8731 59.1555 12.2539 58.6698 12.5299C58.1841 12.8058 57.6487 12.9438 57.0637 12.9438H52.5598ZM53.9507 11.7185H56.9395C57.3203 11.7185 57.6653 11.6219 57.9744 11.4287C58.289 11.23 58.5401 10.9596 58.7278 10.6174C58.9154 10.2752 59.0093 9.88883 59.0093 9.45831C59.0093 9.07747 58.9154 8.71871 58.7278 8.38202C58.5401 8.03982 58.289 7.76385 57.9744 7.55411C57.6653 7.34437 57.3203 7.2395 56.9395 7.2395H53.9507V11.7185ZM53.9507 6.03902H56.4262C56.934 6.03902 57.3672 5.89 57.726 5.59195C58.0903 5.28838 58.2724 4.86615 58.2724 4.32524C58.2724 3.74018 58.0903 3.30415 57.726 3.01714C57.3672 2.72461 56.934 2.57834 56.4262 2.57834H53.9507V6.03902Z" fill="#E4E4E4"/>
<path d="M112.596 24.6841V29.8337H111.205V24.9904C111.205 24.5709 111.103 24.1901 110.898 23.8479C110.694 23.5057 110.421 23.2352 110.079 23.0365C109.737 22.8323 109.356 22.7302 108.936 22.7302C108.522 22.7302 108.141 22.8323 107.794 23.0365C107.452 23.2352 107.178 23.5057 106.974 23.8479C106.77 24.1901 106.668 24.5709 106.668 24.9904V29.8337H105.277V21.5546H106.668V22.5895C106.96 22.2031 107.33 21.8968 107.777 21.6705C108.224 21.4387 108.71 21.3228 109.234 21.3228C109.852 21.3228 110.415 21.4745 110.923 21.7781C111.437 22.0762 111.842 22.4791 112.14 22.9869C112.444 23.4947 112.596 24.0604 112.596 24.6841Z" fill="#E4E4E4"/>
<path d="M99.2685 30.049C98.5068 30.049 97.8113 29.853 97.1821 29.4612C96.5584 29.0693 96.0589 28.5449 95.6836 27.8881C95.3138 27.2258 95.1289 26.4945 95.1289 25.6941C95.1289 25.087 95.2365 24.5213 95.4518 23.9969C95.6671 23.4671 95.9623 23.0034 96.3377 22.606C96.7185 22.2031 97.1601 21.8885 97.6623 21.6622C98.1646 21.4359 98.7 21.3228 99.2685 21.3228C100.03 21.3228 100.723 21.5187 101.347 21.9106C101.976 22.3025 102.475 22.8296 102.845 23.4919C103.22 24.1542 103.408 24.8883 103.408 25.6941C103.408 26.2958 103.3 26.8587 103.085 27.3831C102.87 27.9074 102.572 28.3711 102.191 28.774C101.816 29.1714 101.377 29.4832 100.875 29.7095C100.378 29.9358 99.8425 30.049 99.2685 30.049ZM99.2685 28.6581C99.7873 28.6581 100.254 28.5229 100.668 28.2524C101.087 27.9764 101.416 27.6149 101.653 27.1678C101.896 26.7152 102.017 26.224 102.017 25.6941C102.017 25.1532 101.893 24.6565 101.645 24.2039C101.402 23.7513 101.073 23.3898 100.659 23.1193C100.245 22.8489 99.7818 22.7137 99.2685 22.7137C98.7497 22.7137 98.2833 22.8516 97.8693 23.1276C97.4553 23.3981 97.1269 23.7596 96.8841 24.2122C96.6412 24.6648 96.5198 25.1588 96.5198 25.6941C96.5198 26.2461 96.644 26.7484 96.8924 27.2009C97.1407 27.648 97.4747 28.004 97.8941 28.269C98.3136 28.5284 98.7717 28.6581 99.2685 28.6581Z" fill="#E4E4E4"/>
<path d="M91.8626 21.5545H93.2535V29.8337H91.8626V21.5545ZM92.5746 20.205C92.3538 20.205 92.1689 20.1333 92.0199 19.9898C91.8709 19.8463 91.7964 19.6669 91.7964 19.4516C91.7964 19.2364 91.8709 19.057 92.0199 18.9135C92.1689 18.77 92.3511 18.6982 92.5663 18.6982C92.7816 18.6982 92.9637 18.77 93.1128 18.9135C93.2618 19.057 93.3363 19.2364 93.3363 19.4516C93.3363 19.6669 93.2618 19.8463 93.1128 19.9898C92.9693 20.1333 92.7899 20.205 92.5746 20.205Z" fill="#E4E4E4"/>
<path d="M89.9633 22.9451H88.084L88.0757 29.8334H86.6848L86.6931 22.9451H85.269V21.5542H86.6931L86.6848 18.9546H88.0757L88.084 21.5542H89.9633V22.9451Z" fill="#E4E4E4"/>
<path d="M76.1958 26.6873V21.5542H77.5867V26.3809C77.5867 26.8004 77.6888 27.1813 77.893 27.5235C78.0972 27.8657 78.3705 28.1389 78.7127 28.3431C79.0604 28.5418 79.4412 28.6411 79.8552 28.6411C80.2747 28.6411 80.6527 28.5418 80.9894 28.3431C81.3316 28.1389 81.6048 27.8657 81.8091 27.5235C82.0133 27.1813 82.1154 26.8004 82.1154 26.3809V21.5542H83.5063L83.5146 29.8333H82.1237L82.1154 28.7819C81.8229 29.1683 81.4531 29.4773 81.006 29.7092C80.5589 29.9355 80.076 30.0486 79.5571 30.0486C78.939 30.0486 78.3732 29.8996 77.8599 29.6015C77.3521 29.298 76.9464 28.8923 76.6429 28.3845C76.3448 27.8767 76.1958 27.311 76.1958 26.6873Z" fill="#E4E4E4"/>
<path d="M72.6514 29.8333V17.4146H74.0423V29.8333H72.6514Z" fill="#E4E4E4"/>
<path d="M66.7255 30.049C65.9638 30.049 65.2684 29.853 64.6392 29.4612C64.0155 29.0693 63.516 28.5449 63.1406 27.8881C62.7708 27.2258 62.5859 26.4945 62.5859 25.6941C62.5859 25.087 62.6936 24.5213 62.9088 23.9969C63.1241 23.4671 63.4194 23.0034 63.7947 22.606C64.1755 22.2031 64.6171 21.8885 65.1194 21.6622C65.6216 21.4359 66.157 21.3228 66.7255 21.3228C67.4872 21.3228 68.1799 21.5187 68.8036 21.9106C69.4328 22.3025 69.9323 22.8296 70.3021 23.4919C70.6774 24.1542 70.8651 24.8883 70.8651 25.6941C70.8651 26.2958 70.7575 26.8587 70.5422 27.3831C70.3269 27.9074 70.0289 28.3711 69.6481 28.774C69.2727 29.1714 68.8339 29.4832 68.3317 29.7095C67.8349 29.9358 67.2995 30.049 66.7255 30.049ZM66.7255 28.6581C67.2443 28.6581 67.7107 28.5229 68.1247 28.2524C68.5442 27.9764 68.8726 27.6149 69.1099 27.1678C69.3528 26.7152 69.4742 26.224 69.4742 25.6941C69.4742 25.1532 69.35 24.6565 69.1016 24.2039C68.8588 23.7513 68.5304 23.3898 68.1164 23.1193C67.7025 22.8489 67.2388 22.7137 66.7255 22.7137C66.2067 22.7137 65.7403 22.8516 65.3263 23.1276C64.9124 23.3981 64.584 23.7596 64.3411 24.2122C64.0983 24.6648 63.9768 25.1588 63.9768 25.6941C63.9768 26.2461 64.101 26.7484 64.3494 27.2009C64.5978 27.648 64.9317 28.004 65.3512 28.269C65.7707 28.5284 66.2288 28.6581 66.7255 28.6581Z" fill="#E4E4E4"/>
<path d="M56.642 30.0492C56.0183 30.0492 55.4167 29.9527 54.8371 29.7595C54.2576 29.5608 53.7498 29.2793 53.3138 28.915C52.8832 28.5507 52.5769 28.1174 52.3948 27.6152L53.6946 27.1267C53.805 27.4358 54.0092 27.7062 54.3073 27.9381C54.6108 28.1644 54.9668 28.341 55.3753 28.4679C55.7837 28.5949 56.2059 28.6583 56.642 28.6583C57.1387 28.6583 57.5996 28.5783 58.0246 28.4182C58.4551 28.2527 58.8028 28.0236 59.0678 27.7311C59.3327 27.4385 59.4652 27.0963 59.4652 26.7045C59.4652 26.3015 59.3272 25.9731 59.0512 25.7192C58.7752 25.4598 58.422 25.2556 57.9915 25.1066C57.561 24.952 57.1111 24.8334 56.642 24.7506C55.8417 24.6181 55.1241 24.4305 54.4894 24.1876C53.8602 23.9392 53.3607 23.5943 52.9909 23.1527C52.6266 22.7112 52.4445 22.1289 52.4445 21.4058C52.4445 20.7324 52.6376 20.1446 53.024 19.6424C53.4159 19.1401 53.9319 18.751 54.5722 18.475C55.2124 18.199 55.9024 18.061 56.642 18.061C57.2546 18.061 57.848 18.1576 58.422 18.3508C59.0015 18.5385 59.5121 18.8144 59.9536 19.1787C60.3952 19.543 60.7126 19.9873 60.9057 20.5117L59.5894 20.9919C59.479 20.6772 59.272 20.4068 58.9684 20.1805C58.6704 19.9487 58.3171 19.7721 57.9087 19.6506C57.5058 19.5237 57.0835 19.4602 56.642 19.4602C56.1507 19.4547 55.6926 19.5347 55.2676 19.7003C54.8426 19.8659 54.4977 20.0949 54.2327 20.3875C53.9678 20.68 53.8353 21.0195 53.8353 21.4058C53.8353 21.8694 53.9568 22.2254 54.1996 22.4738C54.448 22.7167 54.7847 22.8988 55.2097 23.0202C55.6347 23.1417 56.1121 23.2493 56.642 23.3431C57.3926 23.4701 58.0881 23.6715 58.7283 23.9475C59.3686 24.218 59.8819 24.5795 60.2682 25.0321C60.6601 25.4847 60.8561 26.0421 60.8561 26.7045C60.8561 27.3778 60.6601 27.9657 60.2682 28.4679C59.8819 28.9702 59.3686 29.3593 58.7283 29.6353C58.0881 29.9113 57.3926 30.0492 56.642 30.0492Z" fill="#E4E4E4"/>
<path d="M138.497 38.543H139.971L135.442 50.9617H133.969L135.467 46.8221L132.495 38.543H134.018L136.163 44.9096L138.497 38.543Z" fill="#E4E4E4"/>
<path d="M131.039 39.9334H129.16L129.151 46.8217H127.76L127.769 39.9334H126.345V38.5425H127.769L127.76 35.9429H129.151L129.16 38.5425H131.039V39.9334Z" fill="#E4E4E4"/>
<path d="M122.874 38.5433H124.265V46.8225H122.874V38.5433ZM123.586 37.1938C123.365 37.1938 123.18 37.1221 123.031 36.9786C122.882 36.8351 122.808 36.6557 122.808 36.4404C122.808 36.2252 122.882 36.0458 123.031 35.9023C123.18 35.7588 123.362 35.687 123.578 35.687C123.793 35.687 123.975 35.7588 124.124 35.9023C124.273 36.0458 124.348 36.2252 124.348 36.4404C124.348 36.6557 124.273 36.8351 124.124 36.9786C123.98 37.1221 123.801 37.1938 123.586 37.1938Z" fill="#E4E4E4"/>
<path d="M120.722 41.6724V46.822H119.331V41.9787C119.331 41.5592 119.229 41.1784 119.025 40.8362C118.821 40.494 118.547 40.2235 118.205 40.0248C117.863 39.8206 117.482 39.7185 117.063 39.7185C116.649 39.7185 116.268 39.8206 115.92 40.0248C115.578 40.2235 115.305 40.494 115.101 40.8362C114.896 41.1784 114.794 41.5592 114.794 41.9787V46.822H113.403V38.5429H114.794V39.5777C115.087 39.1914 115.457 38.8851 115.904 38.6588C116.351 38.4269 116.836 38.311 117.361 38.311C117.979 38.311 118.542 38.4628 119.05 38.7664C119.563 39.0644 119.969 39.4674 120.267 39.9751C120.57 40.4829 120.722 41.0487 120.722 41.6724Z" fill="#E4E4E4"/>
<path d="M103.924 43.676V38.543H105.315V43.3697C105.315 43.7892 105.417 44.17 105.621 44.5122C105.825 44.8544 106.098 45.1276 106.441 45.3319C106.788 45.5306 107.169 45.6299 107.583 45.6299C108.003 45.6299 108.381 45.5306 108.717 45.3319C109.06 45.1276 109.333 44.8544 109.537 44.5122C109.741 44.17 109.843 43.7892 109.843 43.3697V38.543H111.234L111.243 46.8221H109.852L109.843 45.7707C109.551 46.157 109.181 46.4661 108.734 46.6979C108.287 46.9242 107.804 47.0374 107.285 47.0374C106.667 47.0374 106.101 46.8883 105.588 46.5903C105.08 46.2867 104.674 45.8811 104.371 45.3733C104.073 44.8655 103.924 44.2997 103.924 43.676Z" fill="#E4E4E4"/>
<path d="M89.043 46.822V38.5429H90.4339V39.5777C90.7264 39.1914 91.0934 38.8851 91.535 38.6588C91.9821 38.4269 92.4678 38.311 92.9921 38.311C93.6048 38.311 94.165 38.4601 94.6728 38.7581C95.1806 39.0562 95.5807 39.4508 95.8733 39.942C96.1658 39.4508 96.5632 39.0562 97.0655 38.7581C97.5733 38.4601 98.1307 38.311 98.7378 38.311C99.3615 38.311 99.9273 38.4628 100.435 38.7664C100.943 39.0644 101.346 39.4674 101.644 39.9751C101.947 40.4829 102.099 41.0487 102.099 41.6724V46.822H100.708V42.0035C100.708 41.5951 100.609 41.217 100.41 40.8693C100.212 40.5216 99.9438 40.2428 99.6072 40.0331C99.2705 39.8234 98.8979 39.7185 98.4895 39.7185C98.081 39.7185 97.7085 39.8178 97.3718 40.0165C97.0351 40.2097 96.7674 40.4802 96.5687 40.8279C96.37 41.1701 96.2707 41.562 96.2707 42.0035V46.822H94.8798V42.0035C94.8798 41.562 94.7804 41.1701 94.5817 40.8279C94.383 40.4802 94.1126 40.2097 93.7704 40.0165C93.4337 39.8178 93.0611 39.7185 92.6527 39.7185C92.2498 39.7185 91.8772 39.8234 91.535 40.0331C91.1983 40.2428 90.9306 40.5216 90.7319 40.8693C90.5332 41.217 90.4339 41.5951 90.4339 42.0035V46.822H89.043Z" fill="#E4E4E4"/>
<path d="M73.832 46.822V38.5429H75.2229V39.5777C75.5155 39.1914 75.8825 38.8851 76.3241 38.6588C76.7711 38.4269 77.2568 38.311 77.7812 38.311C78.3938 38.311 78.9541 38.4601 79.4619 38.7581C79.9696 39.0562 80.3698 39.4508 80.6623 39.942C80.9549 39.4508 81.3523 39.0562 81.8545 38.7581C82.3623 38.4601 82.9198 38.311 83.5269 38.311C84.1506 38.311 84.7164 38.4628 85.2241 38.7664C85.7319 39.0644 86.1348 39.4674 86.4329 39.9751C86.7365 40.4829 86.8882 41.0487 86.8882 41.6724V46.822H85.4973V42.0035C85.4973 41.5951 85.398 41.217 85.1993 40.8693C85.0006 40.5216 84.7329 40.2428 84.3962 40.0331C84.0595 39.8234 83.687 39.7185 83.2785 39.7185C82.8701 39.7185 82.4975 39.8178 82.1609 40.0165C81.8242 40.2097 81.5565 40.4802 81.3578 40.8279C81.1591 41.1701 81.0597 41.562 81.0597 42.0035V46.822H79.6688V42.0035C79.6688 41.562 79.5695 41.1701 79.3708 40.8279C79.1721 40.4802 78.9016 40.2097 78.5594 40.0165C78.2227 39.8178 77.8502 39.7185 77.4417 39.7185C77.0388 39.7185 76.6663 39.8234 76.3241 40.0331C75.9874 40.2428 75.7197 40.5216 75.521 40.8693C75.3223 41.217 75.2229 41.5951 75.2229 42.0035V46.822H73.832Z" fill="#E4E4E4"/>
<path d="M67.8254 47.0373C67.0637 47.0373 66.3682 46.8413 65.739 46.4494C65.1153 46.0576 64.6158 45.5332 64.2405 44.8764C63.8707 44.2141 63.6858 43.4827 63.6858 42.6824C63.6858 42.0753 63.7934 41.5095 64.0087 40.9852C64.2239 40.4553 64.5192 39.9917 64.8945 39.5943C65.2754 39.1914 65.7169 38.8768 66.2192 38.6505C66.7215 38.4242 67.2569 38.311 67.8254 38.311C68.587 38.311 69.2797 38.507 69.9034 38.8989C70.5326 39.2907 71.0322 39.8178 71.402 40.4802C71.7773 41.1425 71.9649 41.8766 71.9649 42.6824C71.9649 43.284 71.8573 43.847 71.6421 44.3714C71.4268 44.8957 71.1287 45.3594 70.7479 45.7623C70.3726 46.1597 69.9338 46.4715 69.4315 46.6978C68.9348 46.9241 68.3994 47.0373 67.8254 47.0373ZM67.8254 45.6464C68.3442 45.6464 68.8106 45.5111 69.2245 45.2407C69.644 44.9647 69.9724 44.6032 70.2098 44.1561C70.4526 43.7035 70.574 43.2123 70.574 42.6824C70.574 42.1415 70.4499 41.6448 70.2015 41.1922C69.9586 40.7396 69.6302 40.3781 69.2163 40.1076C68.8023 39.8372 68.3387 39.7019 67.8254 39.7019C67.3065 39.7019 66.8401 39.8399 66.4262 40.1159C66.0122 40.3863 65.6838 40.7479 65.441 41.2005C65.1981 41.6531 65.0767 42.147 65.0767 42.6824C65.0767 43.2344 65.2009 43.7366 65.4492 44.1892C65.6976 44.6363 66.0316 44.9923 66.451 45.2572C66.8705 45.5167 67.3286 45.6464 67.8254 45.6464Z" fill="#E4E4E4"/>
<path d="M57.9251 47.0374C57.1413 47.0374 56.4045 46.8829 55.7145 46.5738C55.0246 46.2592 54.4175 45.8287 53.8931 45.2823C53.3743 44.7303 52.9658 44.0901 52.6678 43.3615C52.3753 42.6329 52.229 41.8547 52.229 41.0268C52.229 40.1989 52.3753 39.4206 52.6678 38.6921C52.9658 37.9635 53.3743 37.326 53.8931 36.7796C54.4175 36.2276 55.0246 35.7971 55.7145 35.488C56.4045 35.1734 57.1413 35.0161 57.9251 35.0161C58.8634 35.0161 59.7272 35.2341 60.5164 35.6702C61.3057 36.1062 61.9598 36.6857 62.4786 37.4088L61.245 38.0711C60.8586 37.5633 60.3702 37.1604 59.7796 36.8624C59.1945 36.5588 58.5763 36.407 57.9251 36.407C57.3234 36.407 56.7605 36.5284 56.2361 36.7713C55.7173 37.0141 55.2619 37.3481 54.8701 37.7731C54.4782 38.1981 54.1718 38.6893 53.9511 39.2468C53.7303 39.8042 53.6199 40.3976 53.6199 41.0268C53.6199 41.6615 53.7303 42.2576 53.9511 42.8151C54.1774 43.3725 54.4865 43.8638 54.8783 44.2888C55.2757 44.7138 55.7338 45.0477 56.2527 45.2905C56.777 45.5279 57.3345 45.6465 57.9251 45.6465C58.5984 45.6465 59.2221 45.4948 59.7961 45.1912C60.3757 44.8821 60.8586 44.4792 61.245 43.9824L62.4786 44.653C61.9598 45.3761 61.3057 45.9556 60.5164 46.3917C59.7272 46.8222 58.8634 47.0374 57.9251 47.0374Z" fill="#E4E4E4"/>
</svg>
